<svg width="96" height="96" viewBox="0 0 96 96" fill="none" xmlns="http://www.w3.org/2000/svg">
  <defs>
    <linearGradient id="bg" x1="16" y1="12" x2="80" y2="84" gradientUnits="userSpaceOnUse">
      <stop stop-color="#101726"/>
      <stop offset="1" stop-color="#1F2A42"/>
    </linearGradient>
    <linearGradient id="acc" x1="18" y1="18" x2="78" y2="78" gradientUnits="userSpaceOnUse">
      <stop stop-color="#00E5B0"/>
      <stop offset="1" stop-color="#00BFA6"/>
    </linearGradient>
    <filter id="glow" x="-30%" y="-30%" width="160%" height="160%">
      <feGaussianBlur stdDeviation="1.8" result="blur"/>
      <feMerge>
        <feMergeNode in="blur"/>
        <feMergeNode in="SourceGraphic"/>
      </feMerge>
    </filter>
  </defs>

  <rect x="8" y="8" width="80" height="80" rx="20" fill="url(#bg)"/>
  <rect x="8.75" y="8.75" width="78.5" height="78.5" rx="19.25" stroke="rgba(0,229,176,0.35)" stroke-width="1.5"/>

  <path d="M48 22C34.2 22 23 33.2 23 47C23 60.8 34.2 72 48 72C58.6 72 67.6 65.4 71.2 56.1L61.9 52.6C59.6 58.2 54.2 62.2 48 62.2C39.6 62.2 32.8 55.4 32.8 47C32.8 38.6 39.6 31.8 48 31.8C53.3 31.8 58.1 34.5 60.8 38.6L54.8 43.2H72.8V25.1L66.7 29.8C62.2 25 55.4 22 48 22Z" fill="url(#acc)" filter="url(#glow)"/>

  <circle cx="73.5" cy="56.5" r="4.5" fill="#00E5B0"/>
  <circle cx="73.5" cy="56.5" r="2" fill="#0D0F14"/>
</svg>
